<?xml version="1.0" encoding="UTF-8" standalone="no"?>
<svg width="210" height="60" viewBox="0 0 210 60" version="1.1" xmlns="http://www.w3.org/2000/svg" xmlns:xlink="http://www.w3.org/1999/xlink">
  <rect width="210" height="60" rx="8" fill="#FFDD00"/>
  <g transform="translate(20, 20)" fill="#000000">
    <!-- Coffee cup icon -->
    <path d="M5,0 C5,0 0,0 0,5 L0,15 C0,20 5,20 5,20 L15,20 C15,20 20,20 20,15 L20,5 C20,0 15,0 15,0 L5,0 Z M18,5 L18,15 C18,15 18,18 15,18 L5,18 C2,18 2,15 2,15 L2,5 C2,2 5,2 5,2 L15,2 C18,2 18,5 18,5 Z" fill="#000000"/>
    <path d="M20,8 L23,8 C25,8 25,10 25,10 L25,12 C25,14 23,14 23,14 L20,14 L20,8 Z" fill="#000000"/>
    <!-- Steam -->
    <path d="M7,0 C7,-2 9,-2 9,0 C9,2 11,2 11,0 C11,-2 13,-2 13,0 L13,-1 C13,-3 11,-3 11,-1 C11,1 9,1 9,-1 C9,-3 7,-3 7,-1 L7,0 Z" fill="#000000"/>
  </g>
  <!-- Text -->
  <text x="55" y="36" font-family="Arial, sans-serif" font-size="16" font-weight="bold" fill="#000000">Buy Me a Coffee</text>
</svg>
